<svg width="512" height="512" viewBox="0 0 512 512" fill="none" xmlns="http://www.w3.org/2000/svg">
<rect width="512" height="512" fill="#D97757"/>
<g clip-path="url(#clip0_1207_7)">
<path d="M139.101 319.412L214.778 276.972L216.061 273.284L214.778 271.232H211.107L198.44 270.462L155.182 269.292L117.681 267.736L81.349 265.78L72.194 263.84L63.6001 252.537L64.4819 246.893L72.1779 241.746L83.1768 242.708L107.547 244.36L144.071 246.893L170.558 248.448L209.824 252.537H216.061L216.943 250.02L214.794 248.448L213.143 246.893L175.336 221.304L134.419 194.24L112.999 178.655L101.391 170.783L95.5545 163.376L93.0213 147.214L103.539 135.638L117.664 136.6L121.272 137.578L135.59 148.577L166.181 172.242L206.12 201.631L211.973 206.505L214.297 204.854L214.602 203.683L211.973 199.29L190.247 160.073L167.063 120.15L156.738 103.603L154.012 93.6786C152.974 89.8668 152.413 85.9405 152.345 81.9903L164.338 65.7486L170.959 63.6001L186.928 65.7486L193.663 71.5847L203.603 94.2558L219.669 129.994L244.6 178.575L251.912 192.973L255.808 206.313L257.267 210.401H259.8V208.06L261.852 180.708L265.652 147.118L269.34 103.908L270.622 91.7226L276.651 77.1322L288.628 69.2438L297.991 73.7332L305.687 84.716L304.613 91.8348L300.028 121.512L291.065 168.057L285.229 199.194H288.628L292.524 195.314L308.317 174.374L334.804 141.282L346.508 128.134L360.137 113.64L368.907 106.73H385.469L397.655 124.831L392.203 143.526L375.144 165.123L361.018 183.433L340.752 210.69L328.086 232.495L329.256 234.259L332.271 233.938L378.062 224.222L402.801 219.733L432.319 214.682L445.674 220.903L447.133 227.236L441.875 240.175L410.305 247.967L373.284 255.375L318.145 268.41L317.472 268.891L318.258 269.869L343.093 272.21L353.707 272.787H379.713L428.134 276.394L440.8 284.764L448.4 294.993L447.133 302.769L427.653 312.71L401.358 306.473L339.967 291.883L318.931 286.608H316.013V288.371L333.537 305.495L365.7 334.515L405.928 371.873L407.964 381.14L402.801 388.435L397.35 387.65L361.996 361.083L348.352 349.106L317.472 323.132H315.42V325.857L322.538 336.263L360.137 392.716L362.093 410.032L359.367 415.692L349.619 419.107L338.908 417.151L316.879 386.287L294.191 351.543L275.865 320.39L273.621 321.673L262.814 437.978L257.748 443.911L246.059 448.4L236.327 441.009L231.164 429.032L236.327 405.367L242.564 374.518L247.615 349.987L252.2 319.524L254.926 309.391L254.733 308.718L252.489 309.006L229.497 340.544L194.544 387.762L166.871 417.344L160.233 419.973L148.737 414.041L149.811 403.427L156.241 393.983L194.528 345.306L217.616 315.131L232.527 297.719L232.431 295.186H231.549L129.85 361.179L111.732 363.52L103.924 356.208L104.902 344.248L108.606 340.351L139.197 319.316L139.101 319.412Z" fill="white"/>
</g>
<defs>
<clipPath id="clip0_1207_7">
<rect width="384.8" height="384.8" fill="white" transform="translate(63.6001 63.6001)"/>
</clipPath>
</defs>
</svg>
