<svg width="70" height="70" viewBox="0 0 70 70" fill="none" xmlns="http://www.w3.org/2000/svg">
<g clip-path="url(#clip0_1203_10)">
<path d="M12.7455 1.73828H56.7754C63.7998 1.73828 69.5209 7.45922 69.5209 14.4838V56.7757C69.5209 63.8001 63.8 69.5212 56.7754 69.5212H12.7455C5.72107 69.5212 0 63.8002 0 56.7757V14.4838C0.000135783 7.45922 5.72107 1.73828 12.7455 1.73828Z" fill="#FF7C00"/>
<path d="M13.3246 4.63477H56.1957C61.9891 4.63477 66.6238 9.26944 66.6238 15.0629V56.196C66.6238 61.9894 61.9891 66.6241 56.1957 66.6241H13.3246C7.53116 66.6241 2.89648 61.9894 2.89648 56.196V15.0629C2.89648 9.26958 7.53116 4.63477 13.3246 4.63477Z" fill="#261300"/>
<path d="M32.2966 20.6752C32.1841 20.4499 32.1841 20.4499 31.9588 20.4499H26.1029C25.9903 20.4499 25.8776 20.4499 25.8776 20.6752C25.9096 21.47 25.8338 22.2654 25.6524 23.0401L17.6569 51.0806C17.5444 51.4184 17.657 51.531 17.8822 51.531H22.0488C22.3867 51.531 22.4992 51.4184 22.4992 51.1931L24.7515 42.7472H33.6478L36.0126 51.1931C36.1252 51.4184 36.2379 51.4184 36.463 51.4184H41.0802C41.3054 51.4184 41.3054 51.3058 41.3054 51.0806L32.2966 20.6752ZM25.9903 38.2426C27.1446 33.8507 28.6931 28.2201 29.2561 24.9544C29.9317 28.3328 31.8461 35.0894 32.6345 38.2426H25.9903ZM45.2471 22.5896C45.2468 20.9725 46.5575 19.6614 48.1745 19.6611C49.7916 19.6609 51.1027 20.9716 51.103 22.5886C51.103 22.5889 51.103 22.5893 51.103 22.5896C51.2245 24.0851 50.1107 25.3959 48.6151 25.5174C48.4686 25.5294 48.3214 25.5294 48.1749 25.5174C46.4858 25.4049 45.2471 24.3913 45.2471 22.5896ZM45.5849 29.0084C45.5596 28.8471 45.6699 28.6958 45.8311 28.6706C45.8615 28.6658 45.8923 28.6658 45.9227 28.6706H50.3146C50.4759 28.6453 50.6272 28.7556 50.6524 28.9168C50.6572 28.9472 50.6572 28.978 50.6524 29.0084V51.193C50.6524 51.4183 50.6524 51.5308 50.3146 51.5308H45.9227C45.7614 51.5561 45.6101 51.4458 45.5849 51.2847C45.5801 51.2542 45.5801 51.2234 45.5849 51.193V29.0084Z" fill="white"/>
</g>
<defs>
<clipPath id="clip0_1203_10">
<rect width="69.5208" height="69.5208" fill="white"/>
</clipPath>
</defs>
</svg>
