<svg width="70" height="70" viewBox="0 0 70 70" fill="none" xmlns="http://www.w3.org/2000/svg">
<g clip-path="url(#clip0_1203_15)">
<path d="M12.7455 1.73828H56.7754C63.7998 1.73828 69.5209 7.45922 69.5209 14.4838V56.7757C69.5209 63.8001 63.8 69.5212 56.7754 69.5212H12.7455C5.72107 69.5212 0 63.8002 0 56.7757V14.4838C0.000135783 7.45922 5.72107 1.73828 12.7455 1.73828Z" fill="#D291FF"/>
<path d="M13.3246 4.63477H56.1957C61.9891 4.63477 66.6238 9.26944 66.6238 15.0629V56.196C66.6238 61.9894 61.9891 66.6241 56.1957 66.6241H13.3246C7.53116 66.6241 2.89648 61.9894 2.89648 56.196V15.0629C2.89648 9.26958 7.53116 4.63477 13.3246 4.63477Z" fill="#1F0040"/>
<path d="M20.2148 42.4271L17.9095 51.0719C17.9095 51.3024 17.7942 51.4177 17.4484 51.4177H13.1837C12.9532 51.4177 12.8379 51.3024 12.9532 50.9566L21.1368 22.3713C21.3167 21.6168 21.3943 20.8413 21.3674 20.066C21.3674 19.8354 21.4826 19.8354 21.5979 19.8354H27.5917C27.8222 19.8354 27.8222 19.8354 27.9375 20.066L37.1585 51.0431C37.1585 51.2736 37.1585 51.3889 36.9279 51.3889H32.2022C32.0216 51.3857 31.8521 51.3009 31.741 51.1584L29.4357 42.4271H20.2148ZM28.2833 37.8166C27.4765 34.5892 25.517 27.6735 24.8255 24.2155C24.2492 27.5582 22.6642 33.3214 21.4828 37.8166H28.2833ZM43.7286 40.6982C43.7286 44.6172 45.6881 47.2682 49.9529 47.2682C51.5678 47.3158 53.1728 47.0007 54.6499 46.3461C54.8805 46.2308 54.9957 46.3461 54.9957 46.5766V50.1785C54.9915 50.3923 54.9096 50.5972 54.7652 50.7548C53.2668 51.5616 51.3073 51.7922 49.002 51.7922C41.3946 51.7922 38.5131 46.1443 38.5131 39.92C38.5131 33.1195 42.1151 27.5869 48.1952 27.5869C54.4195 27.5869 56.6094 32.8889 56.6094 37.1537C56.6303 38.1578 56.553 39.1615 56.3788 40.1506C56.3715 40.3066 56.2467 40.4315 56.0907 40.4387C54.4845 40.6299 52.8668 40.707 51.2496 40.6693L43.7286 40.6982ZM49.6069 36.7792H51.7682V36.3181C51.7682 34.6756 50.9901 31.794 47.9933 31.794C45.227 31.794 44.0743 34.2144 43.7285 36.7503L49.6069 36.7792Z" fill="white"/>
</g>
<defs>
<clipPath id="clip0_1203_15">
<rect width="69.5208" height="69.5208" fill="white"/>
</clipPath>
</defs>
</svg>
