<svg width="70" height="70" viewBox="0 0 70 70" fill="none" xmlns="http://www.w3.org/2000/svg">
<g clip-path="url(#clip0_1203_20)">
<path d="M12.7455 1.73779H57.0129C63.8922 1.73779 69.5208 7.3664 69.5208 14.2458V57.0126C69.5208 63.8919 63.8922 69.5206 57.0129 69.5206H12.508C5.6286 69.5206 0 63.8919 0 57.0125V14.4833C0 7.45873 5.72107 1.73779 12.7455 1.73779Z" fill="#00C8FF"/>
<path d="M13.3246 4.63477H56.4332C62.0614 4.63477 66.6238 9.1972 66.6238 14.8254V56.4335C66.6238 62.0616 62.0612 66.6241 56.4332 66.6241H13.0871C7.45892 66.6241 2.89648 62.0616 2.89648 56.4335V15.0629C2.89648 9.26958 7.53116 4.63477 13.3246 4.63477Z" fill="#001D26"/>
<path d="M46.3217 31.6853C44.0384 31.6853 43.3534 32.827 43.3534 33.7404C43.3534 34.6538 43.9242 35.4529 46.9211 37.0513C51.3737 39.192 52.8578 41.2755 52.8578 44.3581C52.8578 48.9249 49.4328 51.4366 44.6376 51.4366C42.5843 51.5277 40.5415 51.0955 38.7009 50.1807C38.4725 50.0665 38.4725 49.9523 38.4725 49.7241V45.4999C38.4725 45.2715 38.5867 45.1574 38.815 45.2715C40.5037 46.4005 42.4921 46.997 44.5234 46.984C46.8067 46.984 47.7202 46.0706 47.7202 44.8434C47.7202 43.8159 47.0066 42.9025 44.1523 41.4184C40.1564 39.4775 38.4439 37.5366 38.4439 34.2258C38.4439 30.5725 41.298 27.4899 46.2929 27.4899C48.0411 27.4193 49.7864 27.6907 51.4306 28.2891C51.645 28.3682 51.7548 28.6061 51.6758 28.8206C51.6709 28.834 51.6652 28.8472 51.6589 28.86V32.7417C51.6589 32.9701 51.5447 33.0842 51.2023 32.9701C49.7132 32.1546 48.0478 31.7137 46.3501 31.6857H46.3217V31.6853ZM35.7611 29.402C35.7611 36.7088 30.5093 39.7913 24.0018 39.7913H21.8611V50.7514C21.8868 50.9149 21.7751 51.0683 21.6114 51.0938C21.5806 51.0987 21.5494 51.0987 21.5186 51.0938H17.009C16.8455 51.1195 16.692 51.0078 16.6665 50.8441C16.6616 50.8133 16.6616 50.7821 16.6665 50.7513L16.7807 19.9259C16.7807 19.6975 17.2373 19.5834 17.4942 19.5834C19.3209 19.4692 22.061 19.4692 24.801 19.4692C32.65 19.4694 35.7611 23.8078 35.7611 29.402ZM30.5665 29.402C30.5665 25.7486 28.2831 23.922 24.5156 23.922C23.6007 23.8894 22.6845 23.9277 21.7755 24.0362V35.1105H24.0588C27.3984 35.1105 30.5665 33.9688 30.5665 29.402Z" fill="white"/>
</g>
<defs>
<clipPath id="clip0_1203_20">
<rect width="69.5208" height="69.5208" fill="white"/>
</clipPath>
</defs>
</svg>
