<svg width="70" height="70" viewBox="0 0 70 70" fill="none" xmlns="http://www.w3.org/2000/svg">
<g clip-path="url(#clip0_1203_2)">
<path d="M12.7455 1.73828H56.7754C63.7998 1.73828 69.5209 7.45922 69.5209 14.4838V56.7757C69.5209 63.8001 63.8 69.5212 56.7754 69.5212H12.7455C5.72107 69.5212 0 63.8002 0 56.7757V14.4838C0.000135783 7.45922 5.72107 1.73828 12.7455 1.73828Z" fill="#1E1E1E"/>
<path d="M27.8083 55.6166C31.6479 55.6166 34.7604 52.5041 34.7604 48.6645V41.7124H27.8083C23.9687 41.7124 20.8562 44.825 20.8562 48.6645C20.8562 52.5041 23.9687 55.6166 27.8083 55.6166Z" fill="#0ACF83"/>
<path d="M20.8562 34.7602C20.8562 30.9206 23.9687 27.8081 27.8083 27.8081H34.7604V41.7123H27.8083C23.9687 41.7123 20.8562 38.5996 20.8562 34.7602Z" fill="#A259FF"/>
<path d="M20.8562 20.8564C20.8562 17.0168 23.9687 13.9043 27.8083 13.9043H34.7604V27.8085H27.8083C23.9687 27.8085 20.8562 24.6958 20.8562 20.8564Z" fill="#F24E1E"/>
<path d="M34.7605 13.9043H41.7126C45.5521 13.9043 48.6646 17.0168 48.6646 20.8564C48.6646 24.6958 45.5521 27.8085 41.7126 27.8085H34.7605V13.9043Z" fill="#FF7262"/>
<path d="M48.6646 34.7602C48.6646 38.5996 45.5521 41.7123 41.7126 41.7123C37.873 41.7123 34.7605 38.5996 34.7605 34.7602C34.7605 30.9206 37.873 27.8081 41.7126 27.8081C45.5521 27.8081 48.6646 30.9206 48.6646 34.7602Z" fill="#1ABCFE"/>
</g>
<defs>
<clipPath id="clip0_1203_2">
<rect width="69.5208" height="69.5208" fill="white"/>
</clipPath>
</defs>
</svg>
